<svg xmlns="http://www.w3.org/2000/svg" version="1.1" xmlns:xlink="http://www.w3.org/1999/xlink" xmlns:svgjs="http://svgjs.com/svgjs" width="1390" height="509" preserveAspectRatio="none" viewBox="0 0 1390 509"><g mask="url(&quot;#SvgjsMask1121&quot;)" fill="none"><rect width="1390" height="509" x="0" y="0" fill="rgba(50, 50, 50, 1)"></rect><path d="M821.5 523.91C941.66 505.97 979.52 237.8 1200.83 220.14 1422.13 202.48 1477.49 65.45 1580.15 62.35" stroke="rgba(170, 170, 170, 1)" stroke-width="2"></path><path d="M637.06 519.26C775.83 514.33 869.58 303.36 1145.08 294.74 1420.58 286.12 1516.33 94.88 1653.1 91.14" stroke="rgba(170, 170, 170, 1)" stroke-width="2"></path><path d="M760.73 551.99C867.64 521.51 804.32 237.02 1058.1 221.38 1311.88 205.74 1499.01 64.92 1652.83 63.59" stroke="rgba(170, 170, 170, 1)" stroke-width="2"></path><path d="M360.23 548C539.79 533.47 662.75 172.74 974.88 171.89 1287.02 171.04 1430.9 328.43 1589.54 329.68" stroke="rgba(170, 170, 170, 1)" stroke-width="2"></path><path d="M545.4 582.14C658.74 549.35 621.23 230.36 859.58 229.95 1097.94 229.54 1322.44 435.93 1487.95 438.64" stroke="rgba(170, 170, 170, 1)" stroke-width="2"></path></g><defs><mask id="SvgjsMask1121"><rect width="1390" height="509" fill="#ffffff"></rect></mask></defs></svg>