<svg xmlns="http://www.w3.org/2000/svg" xmlns:xlink="http://www.w3.org/1999/xlink" width="33.922" height="31.926" viewBox="0 0 33.922 31.926">
  <defs>
    <linearGradient id="linear-gradient" x1="0.5" x2="0.5" y2="1" gradientUnits="objectBoundingBox">
      <stop offset="0" stop-color="#00ba93"/>
      <stop offset="1" stop-color="#00a69c"/>
    </linearGradient>
  </defs>
  <path id="chart-pie" d="M32.909,17.962h-14.8l9.854,9.854a1,1,0,0,0,1.384.042,14.934,14.934,0,0,0,4.56-8.783,1,1,0,0,0-1-1.113Zm-.987-4.041A15,15,0,0,0,18.006.006a1,1,0,0,0-1.048,1.01V14.969H30.912A1,1,0,0,0,31.922,13.921ZM13.966,17.962V3.166a1,1,0,0,0-1.112-1A14.954,14.954,0,0,0,.007,17.486,15.15,15.15,0,0,0,15.152,31.928a14.849,14.849,0,0,0,8.434-2.746.991.991,0,0,0,.1-1.5Z" transform="translate(0.002 -0.004)" fill="url(#linear-gradient)"/>
</svg>
