<svg xmlns="http://www.w3.org/2000/svg" xmlns:xlink="http://www.w3.org/1999/xlink" width="33.719" height="33.719" viewBox="0 0 33.719 33.719">
  <defs>
    <linearGradient id="linear-gradient" x1="0.5" x2="0.5" y2="1" gradientUnits="objectBoundingBox">
      <stop offset="0" stop-color="#00ba93"/>
      <stop offset="1" stop-color="#00a69c"/>
    </linearGradient>
  </defs>
  <path id="life-ring" d="M24.86,8a16.86,16.86,0,1,0,16.86,16.86A16.86,16.86,0,0,0,24.86,8Zm11.808,8.128-4.31,4.31a8.8,8.8,0,0,0-3.077-3.077l4.31-4.31A14.847,14.847,0,0,1,36.668,16.128ZM24.86,31.386a6.526,6.526,0,1,1,6.526-6.526A6.526,6.526,0,0,1,24.86,31.386ZM16.128,13.051l4.31,4.31a8.8,8.8,0,0,0-3.077,3.077l-4.31-4.31a14.845,14.845,0,0,1,3.077-3.077Zm-3.077,20.54,4.31-4.31a8.8,8.8,0,0,0,3.077,3.077l-4.31,4.31a14.847,14.847,0,0,1-3.077-3.077Zm20.54,3.077-4.31-4.31a8.8,8.8,0,0,0,3.077-3.077l4.31,4.31a14.848,14.848,0,0,1-3.077,3.077Z" transform="translate(-8 -8)" fill="url(#linear-gradient)"/>
</svg>
