<svg xmlns="http://www.w3.org/2000/svg" width="167" height="61" viewBox="0 0 167 61">
  <g id="Group_7262" data-name="Group 7262" transform="translate(-150 -71)">
    <text id="Hixo" transform="translate(221 117)" fill="#323232" font-size="44" font-family="Poppins-SemiBold, Poppins" font-weight="600"><tspan x="0" y="0">Hixo</tspan></text>
    <g id="Group_7261" data-name="Group 7261" transform="translate(-246.487 -243)">
      <path id="Path_12012" data-name="Path 12012" d="M517.891,338.826,502.84,353.878a10.728,10.728,0,0,0-2.723,10.556l4.824,16.74h0a19.355,19.355,0,0,1,5.474-11.472l15.465-15.639a3.671,3.671,0,0,0,.928-3.56l-2.782-10.058A3.672,3.672,0,0,0,517.891,338.826Z" transform="translate(-70.951 -14.951)" fill="#00ba93"/>
      <path id="Path_12013" data-name="Path 12013" d="M435.183,411.416l-5.9-20.451a10.729,10.729,0,0,0-7.925-7.486l-16.986-3.869h0a19.969,19.969,0,0,1,7.663,10.773l5.957,20.646a3.671,3.671,0,0,0,2.674,2.553L430.8,416A3.672,3.672,0,0,0,435.183,411.416Z" transform="translate(-5.42 -43.728)" fill="#00a69c"/>
      <path id="Path_12014" data-name="Path 12014" d="M399.149,330.5l20.462,5.863a10.727,10.727,0,0,0,10.552-2.738l12.3-12.336-.09.035a21.118,21.118,0,0,1-13.489.626l-20.275-5.81a3.671,3.671,0,0,0-3.583.909l-7.437,7.3A3.671,3.671,0,0,0,399.149,330.5Z" fill="#f5c746"/>
    </g>
  </g>
</svg>
